# AST/ASF file generated using VICON BodyLanguage
# -----------------------------------------------
:version 1.10
:name VICON
:units
  mass 1.0
  length 0.45
  angle deg
:documentation
   .ast/.asf automatically generated from VICON data using
   VICON BodyBuilder and BodyLanguage model FoxedUp or BRILLIANT.MOD
:root
   order TX TY TZ RX RY RZ
   axis XYZ
   position 0 0 0  
   orientation 0 0 0 
:bonedata
  begin
     id 1 
     name lhipjoint
     direction 0.62366 -0.717238 0.310833 
     length 2.53602 
     axis 0 0 0  XYZ
  end
  begin
     id 2 
     name lfemur
     direction 0.34202 -0.939693 0  
     length 7.40817  
     axis 0 0 20  XYZ
    dof rx ry rz
    limits (-160.0 20.0)
           (-70.0 70.0)
           (-60.0 70.0)
  end
  begin
     id 3 
     name ltibia
     direction 0.34202 -0.939693 0   
     length 7.7045   
     axis 0 0 20   XYZ
    dof rx
    limits (-10.0 170.0)
  end
  begin
     id 4 
     name lfoot
     direction 0.0673888 -0.185149 0.980397   
     length 2.09456   
     axis -90 7.62852e-016 20   XYZ
    dof rx rz
    limits (-45.0 90.0)
           (-70.0 20.0)
  end
  begin
     id 5 
     name ltoes
     direction 1.53575e-011 -4.21994e-011 1   
     length 1.05543   
     axis -90 7.62852e-016 20   XYZ
    dof rx
    limits (-90.0 20.0)
  end
  begin
     id 6 
     name rhipjoint
     direction -0.489018 -0.800347 0.346851   
     length 2.27268  
     axis 0 0 0  XYZ 
  end
  begin
     id 7 
     name rfemur
     direction -0.34202 -0.939693 0   
     length 7.55487   
     axis 0 0 -20   XYZ
    dof rx ry rz
    limits (-160.0 20.0)
           (-70.0 70.0)
           (-70.0 60.0)
  end
  begin
     id 8 
     name rtibia
     direction -0.34202 -0.939693 0   
     length 7.78969   
     axis 0 0 -20   XYZ
    dof rx
    limits (-10.0 170.0)
 end
 begin
     id 9 
     name rfoot
     direction -0.0859318 -0.236096 0.967923   
     length 2.19143  
     axis -90 -7.62852e-016 -20   XYZ
    dof rx rz
    limits (-45.0 90.0)
           (-20.0 70.0)
  end
  begin
     id 10 
     name rtoes
     direction -1.53538e-011 -4.21989e-011 1   
     length 1.09845   
     axis -90 -7.62852e-016 -20   XYZ
    dof rx
    limits (-90.0 20.0)
  end
  begin
     id 11 
     name lowerback
     direction -0.00762546 0.998978 -0.0445553   
     length 1.98161   
     axis 0 0 0   XYZ
    dof rx ry rz
    limits (-20.0 45.0)
           (-30.0 30.0)
           (-30.0 30.0)
  end
  begin
     id 12 
     name upperback
     direction 0.0422361 0.998867 -0.0219156   
     length 1.97558   
     axis 0 0 0   XYZ
    dof rx ry rz
    limits (-20.0 45.0)
           (-30.0 30.0)
           (-30.0 30.0)
  end
  begin
     id 13 
     name thorax
     direction 0.0442465 0.999021 7.47603e-005   
     length 1.97799   
     axis 0 0 0   XYZ
    dof rx ry rz
    limits (-20.0 45.0)
           (-30.0 30.0)
           (-30.0 30.0)
  end
  begin
     id 14 
     name lowerneck
     direction 0.00312169 0.984641 0.174564   
     length 1.78995   
     axis 0 0 0   XYZ
    dof rx ry rz
    limits (-20.0 45.0)
           (-30.0 30.0)
           (-30.0 30.0)
  end
  begin
     id 15 
     name upperneck
     direction -0.0383028 0.985255 -0.166749   
     length 1.83053   
     axis 0 0 0   XYZ
    dof rx ry rz
    limits (-20.0 45.0)
           (-30.0 30.0)
           (-30.0 30.0)
  end
  begin
     id 16
     name head
     direction -0.0129546 0.997059 -0.0755386  
     length 1.84088  
     axis 0 0 0   XYZ
    dof rx ry rz
    limits (-20.0 45.0)
           (-30.0 30.0)
           (-30.0 30.0)
  end
  begin
     id 17 
     name lclavicle
     direction 0.912857 0.370519 -0.171488  
     length 3.51279  
     axis 0 0 0   XYZ
    dof ry rz
    limits (-20.0 10.0)
           (0.0 20.0)
  end
  begin
     id 18 
     name lhumerus
     direction 1 -4.48962e-011 3.64361e-027   
     length 4.95663   
     axis 180 -30 -90   XYZ
    dof rx ry rz
    limits (-60.0 90.0)
           (-90.0 90.0)
           (-90.0 90.0)
  end
  begin
     id 19
     name lradius
     direction 1 -4.48974e-011 5.97202e-027   
     length 3.38177   
     axis 180 -30 -90   XYZ
    dof rx
    limits (-10.0 170.0)
  end
  begin
     id 20
     name lwrist
     direction 1 -4.4896e-011 9.83288e-027   
     length 1.69088   
     axis -9.31221e-015 90 90   XYZ
    dof ry
    limits (-180.0 0.0)
 end
  begin
     id 21 
     name lhand
     direction 1 -4.4902e-011 1.96551e-026   
     length 0.662909   
     axis -1.25475e-014 90 90   XYZ
    dof rx rz
    limits (-90.0 90.0)
           (-45.0 45.0)
  end
  begin
     id 22 
     name lfingers
     direction 1 -4.48971e-011 3.93277e-026   
     length 0.534454   
     axis -2.50945e-014 90 90   XYZ
    dof rx
    limits (0.0 90.0)
  end
  begin
     id 23
     name lthumb
     direction 0.707107 -6.34933e-011 0.707107   
     length 0.767373   
     axis -90 45 -4.80359e-014   XYZ
    dof rx rz
    limits (-45.0 45.0)
           (-45.0 45.0)
  end
  begin
     id 24 
     name rclavicle
     direction -0.900919 0.395364 -0.178976   
     length 3.40627  
     axis 0 0 0   XYZ 
    dof ry rz
    limits (-10.0 20.0)
           (-20.0 0.0)
  end
  begin
     id 25 
     name rhumerus
     direction -1 -4.48969e-011 1.03875e-027  
     length 5.08365   
     axis 180 30 90   XYZ
    dof rx ry rz
    limits (-90.0 60.0)
           (-90.0 90.0)
           (-90.0 90.0)
  end
  begin
     id 26 
     name rradius
     direction -1 -4.48951e-011 5.02733e-027   
     length 3.35984   
     axis 180 30 90   XYZ
    dof rx
    limits (-10.0 170.0)
  end
  begin
     id 27 
     name rwrist
     direction -1 -4.49011e-011 9.82828e-027   
     length 1.67992   
     axis -9.31221e-015 -90 -90   XYZ
    dof ry
    limits (-180.0 0.0)
  end
  begin
     id 28
     name rhand
     direction -1 -4.48894e-011 1.96774e-026   
     length 0.820764   
     axis -1.25475e-014 -90 -90   XYZ
    dof rx rz
    limits (-90.0 90.0)
           (-45.0 45.0)
  end
  begin
     id 29
     name rfingers
     direction -1 -4.49095e-011 3.92833e-026   
     length 0.661721   
     axis -2.50945e-014 -90 -90   XYZ
    dof rx
    limits (0.0 90.0)
  end
  begin
     id 30
     name rthumb
     direction -0.707107 -6.34881e-011 0.707107   
     length 0.950103   
     axis -90 -45 4.80359e-014   XYZ
    dof rx rz
    limits (-45.0 45.0)
           (-45.0 45.0)
  end
:hierarchy
  begin
    root lhipjoint rhipjoint lowerback
    lhipjoint lfemur
    lfemur ltibia
    ltibia lfoot
    lfoot ltoes
    rhipjoint rfemur
    rfemur rtibia
    rtibia rfoot
    rfoot rtoes
    lowerback upperback
    upperback thorax
    thorax lowerneck lclavicle rclavicle
    lowerneck upperneck
    upperneck head
    lclavicle lhumerus
    lhumerus lradius
    lradius lwrist
    lwrist lhand lthumb
    lhand lfingers
    rclavicle rhumerus
    rhumerus rradius
    rradius rwrist
    rwrist rhand rthumb
    rhand rfingers
  end

#!OML:ASF I:\golf\golf\golf 2\Subject 1\2002-09-07\Subject1.ASF
:FULLY-SPECIFIED
:DEGREES
134
root 1.82876 17.9139 -7.41429 10.615 -5.57474 -0.210632
lowerback 1.95505 1.16 -8.04228
upperback 3.20563 1.47596 2.07063
thorax 1.98291 0.536892 6.68011
lowerneck -15.4089 1.84472 0.879719
upperneck 40.5034 5.86851 -7.80331
head 18.0118 1.41797 -2.66748
rclavicle 1.49585e-014 5.56597e-015
rhumerus -22.1334 7.82952 -82.5586
rradius 37.7347
rwrist -14.0978
rhand -32.3176 21.768
rfingers 7.12502
rthumb -5.55538 -8.13914
lclavicle 1.49585e-014 5.56597e-015
lhumerus -27.1661 -4.35414 88.3676
lradius 34.863
lwrist 8.40564
lhand -10.9121 36.0417
lfingers 7.12502
lthumb 15.1052 65.4706
rfemur -37.8089 -10.1383 19.4423
rtibia 31.8388
rfoot -8.79284 -7.84329
rtoes -0.470868
lfemur -6.88233 3.96075 -20.7176
ltibia 18.7156
lfoot -17.0103 3.38611
ltoes -13.0768
135
root 1.79192 17.9035 -7.36559 10.652 -5.32378 -0.11584
lowerback 2.14227 1.16521 -8.09326
upperback 3.34156 1.47056 2.09429
thorax 2.01959 0.526254 6.73241
lowerneck -15.4243 1.82234 0.869724
upperneck 40.3814 5.85778 -7.87169
head 17.9473 1.40656 -2.69274
rclavicle -6.60959e-015 5.56597e-015
rhumerus -21.7921 8.22974 -82.4978
rradius 37.9412
rwrist -14.0421
rhand -32.3251 21.7447
rfingers 7.12502
rthumb -5.56266 -8.16229
lclavicle -6.60959e-015 5.56597e-015
lhumerus -27.1963 -5.28226 88.6903
lradius 35.3346
lwrist 8.79517
lhand -11.6823 35.0819
lfingers 7.12502
lthumb 14.3632 64.565
rfemur -37.7308 -9.69783 19.1562
rtibia 31.6013
rfoot -8.59021 -7.93761
rtoes 0.666524
lfemur -6.75846 3.76264 -20.6493
ltibia 18.6676
lfoot -17.0561 3.34665
ltoes -13.2698
136
root 1.75464 17.9028 -7.31345 10.7818 -5.01111 -0.194323
lowerback 2.14331 1.16859 -7.99137
upperback 3.49147 1.47793 2.2139
thorax 2.17366 0.518438 6.80339
lowerneck -15.3867 1.76808 0.756787
upperneck 40.2824 5.83374 -7.93497
head 17.878 1.37608 -2.70017
rclavicle -5.01931e-015 -1.0138e-014
rhumerus -21.4339 8.64198 -82.3291
rradius 38.1362
rwrist -14.0049
rhand -32.381 21.8089
rfingers 7.12502
rthumb -5.61658 -8.09666
lclavicle -5.01931e-015 -1.0138e-014
lhumerus -27.2164 -6.3098 89.1267
lradius 35.8013
lwrist 9.12968
lhand -12.747 33.9489
lfingers 7.12502
lthumb 13.337 63.5021
rfemur -37.7004 -9.39322 19.132
rtibia 31.3873
rfoot -8.38788 -7.97639
rtoes 1.66646
lfemur -6.75448 3.50513 -20.379
ltibia 18.6963
lfoot -17.08 3.22694
ltoes -12.918
137
root 1.71596 17.9012 -7.26133 10.8379 -4.68231 -0.278632
lowerback 2.3505 1.16543 -7.81251
upperback 3.59325 1.45964 2.28908
thorax 2.16773 0.50928 6.77797
lowerneck -15.3092 1.71011 0.6427
upperneck 40.2208 5.78659 -7.95246
head 17.8153 1.34207 -2.69228
rclavicle -2.68359e-015 -3.18055e-015
rhumerus -21.2008 9.0827 -82.2648
rradius 38.3691
rwrist -13.9785
rhand -32.5348 21.8693
rfingers 7.12502
rthumb -5.76504 -8.0323
lclavicle -2.68359e-015 -3.18055e-015
lhumerus -27.5457 -7.37143 89.5135
lradius 36.8572
lwrist 9.32673
lhand -13.6158 33.7705
lfingers 7.12502
lthumb 12.4995 63.3766
rfemur -37.5723 -9.1539 19.1515
rtibia 31.2198
rfoot -8.21069 -8.04043
rtoes 1.29095
lfemur -6.69809 3.39032 -20.0856
ltibia 18.7938
lfoot -17.1323 3.01134
ltoes -12.7176
138
root 1.67503 17.8889 -7.21059 10.8114 -4.37198 -0.209779
lowerback 2.6942 1.1866 -7.79254
upperback 3.70247 1.46347 2.30462
thorax 2.0881 0.511229 6.77711
lowerneck -15.2735 1.65264 0.636379
upperneck 40.167 5.71285 -7.99003
head 17.7704 1.31035 -2.71908
rclavicle 4.96962e-015 1.55052e-014
rhumerus -21.0002 9.37859 -82.2394
rradius 38.6707
rwrist -13.8689
rhand -32.7388 21.7873
rfingers 7.12502
rthumb -5.96205 -8.10884
lclavicle 4.96962e-015 1.55052e-014
lhumerus -28.0338 -8.39927 89.849
lradius 38.1858
lwrist 9.48075
lhand -13.6867 34.2858
lfingers 7.12502
lthumb 12.4312 63.8961
rfemur -37.3704 -8.93969 19.0075
rtibia 31.0921
rfoot -7.95284 -8.0964
rtoes 0.401265
lfemur -6.62134 3.34626 -19.954
ltibia 19.0282
lfoot -17.3084 2.82756
ltoes -12.8963
139
root 1.63316 17.8766 -7.15721 10.9159 -4.04433 -0.0586704
lowerback 2.77972 1.20438 -7.93632
upperback 3.84403 1.48163 2.37158
thorax 2.18208 0.50663 6.9309
lowerneck -15.2398 1.5868 0.579938
upperneck 40.0488 5.64676 -8.04774
head 17.6894 1.27315 -2.74069
rclavicle -5.56597e-015 -2.88238e-014
rhumerus -20.6823 9.63688 -82.0533
rradius 38.9439
rwrist -13.811
rhand -32.8158 21.661
rfingers 7.12502
rthumb -6.0364 -8.23299
lclavicle -5.56597e-015 -2.88238e-014
lhumerus -28.3535 -9.44693 90.2734
lradius 39.3237
lwrist 9.59213
lhand -13.0697 34.9101
lfingers 7.12502
lthumb 13.0261 64.4834
rfemur -37.2949 -8.81271 18.819
rtibia 31.012
rfoot -7.65144 -8.049
rtoes 0.142763
lfemur -6.7784 3.26543 -19.9322
ltibia 19.4591
lfoot -17.6069 2.75123
ltoes -13.6373
140
root 1.58978 17.8685 -7.10659 11.1565 -3.6289 -0.0393791
lowerback 3.1172 1.22002 -7.64069
upperback 3.71863 1.47817 2.26601
thorax 1.86757 0.532038 6.63978
lowerneck -14.996 1.5394 0.737275
upperneck 39.9966 5.495 -8.00702
head 17.5825 1.25055 -2.77451
rclavicle 4.57205e-015 1.19271e-015
rhumerus -20.7351 9.7362 -82.1964
rradius 39.2183
rwrist -13.7966
rhand -32.8898 21.5237
rfingers 7.12502
rthumb -6.1078 -8.36825
lclavicle 4.57205e-015 1.19271e-015
lhumerus -28.9607 -10.9451 90.5369
lradius 40.3962
lwrist 9.95291
lhand -13.7728 34.2815
lfingers 7.12502
lthumb 12.3482 63.8968
rfemur -37.3626 -8.80128 18.8676
rtibia 31.017
rfoot -7.00992 -7.96807
rtoes -0.729084
lfemur -7.17116 3.26352 -19.7677
ltibia 20.0057
lfoot -17.9209 2.65163
ltoes -14.9126
141
root 1.54676 17.8561 -7.06457 11.4286 -3.17648 -0.180771
lowerback 2.87973 1.23971 -7.62109
upperback 4.0046 1.52551 2.5639
thorax 2.28658 0.523787 6.95426
lowerneck -15.0323 1.39505 0.556984
upperneck 39.6848 5.38834 -8.19321
head 17.4122 1.16372 -2.82936
rclavicle -3.97569e-015 2.78299e-015
rhumerus -20.1255 10.1958 -81.7
rradius 39.5094
rwrist -14.0069
rhand -32.9337 21.3958
rfingers 7.12502
rthumb -6.15025 -8.49497
lclavicle -3.97569e-015 2.78299e-015
lhumerus -28.9457 -11.5337 91.1294
lradius 41.5221
lwrist 9.82117
lhand -14.1178 33.7042
lfingers 7.12502
lthumb 12.0156 63.3393
rfemur -37.516 -8.84671 19.1481
rtibia 31.1056
rfoot -5.86576 -7.82373
rtoes -2.18055
lfemur -7.68718 3.23206 -19.4002
ltibia 20.6193
lfoot -18.1596 2.39966
ltoes -14.8878
142
root 1.50352 17.8424 -7.01593 11.5917 -2.80157 -0.28182
lowerback 3.19757 1.2906 -7.19895
upperback 4.03405 1.5769 2.50133
thorax 2.13711 0.567045 6.63739
lowerneck -15.0589 1.28151 0.603104
upperneck 39.6461 5.16587 -8.11005
head 17.3744 1.09419 -2.8375
rclavicle 9.14409e-015 1.66979e-014
rhumerus -19.9296 10.224 -81.793
rradius 39.7257
rwrist -13.9635
rhand -32.8729 21.4963
rfingers 7.12502
rthumb -6.09153 -8.3961
lclavicle 9.14409e-015 1.66979e-014
lhumerus -29.4748 -12.6911 91.3409
lradius 42.8373
lwrist 10.1845
lhand -14.4423 33.5629
lfingers 7.12502
lthumb 11.7026 63.216
rfemur -37.6037 -8.95283 19.4142
rtibia 31.2964
rfoot -4.80339 -7.52905
rtoes -2.89897
lfemur -8.09562 3.11497 -19.0552
ltibia 21.2841
lfoot -18.3475 2.11129
ltoes -13.8998
143
root 1.45791 17.8314 -6.95824 11.7027 -2.45428 -0.298289
lowerback 3.37226 1.3119 -7.06882
upperback 4.14103 1.59639 2.56171
thorax 2.14841 0.575383 6.62415
lowerneck -15.0834 1.19842 0.487848
upperneck 39.5812 5.05045 -8.04605
head 17.3285 1.04151 -2.80364
rclavicle -1.2921e-015 6.75868e-015
rhumerus -19.6053 10.4166 -81.7016
rradius 39.8805
rwrist -13.9932
rhand -32.758 21.5942
rfingers 7.12502
rthumb -5.9806 -8.30134
lclavicle -1.2921e-015 6.75868e-015
lhumerus -30.0278 -13.6797 91.7083
lradius 44.2313
lwrist 10.6961
lhand -14.6678 33.4656
lfingers 7.12502
lthumb 11.4852 63.131
rfemur -37.6574 -9.00712 19.5552
rtibia 31.6287
rfoot -4.23237 -7.2162
rtoes -2.38765
lfemur -8.41111 3.02204 -18.8066
ltibia 21.9377
lfoot -18.5439 1.96152
ltoes -14.1597
144
root 1.41001 17.8165 -6.90469 11.8603 -2.01986 -0.332661
lowerback 3.57123 1.31088 -6.92825
upperback 4.21417 1.58415 2.65312
thorax 2.11549 0.570672 6.6375
lowerneck -15.0655 1.13587 0.349198
upperneck 39.5233 4.96608 -7.96113
head 17.2769 1.0018 -2.75025
rclavicle 3.57812e-015 1.19271e-014
rhumerus -19.3256 10.6995 -81.5727
rradius 40.1108
rwrist -14.1586
rhand -32.6424 21.4619
rfingers 7.12502
rthumb -5.86898 -8.43682
lclavicle 3.57812e-015 1.19271e-014
lhumerus -30.605 -14.4802 92.1163
lradius 45.6363
lwrist 11.0597
lhand -14.7655 33.2633
lfingers 7.12502
lthumb 11.3909 62.9339
rfemur -37.8389 -9.08289 19.7187
rtibia 32.099
rfoot -3.93337 -6.98957
rtoes -1.46588
lfemur -8.76274 2.82544 -18.5231
ltibia 22.6062
lfoot -18.6964 2.00667
ltoes -15.9702
145
root 1.36089 17.7983 -6.85517 12.0039 -1.52091 -0.409744
lowerback 3.79969 1.33445 -6.69832
upperback 4.31599 1.60568 2.74015
thorax 2.09196 0.584073 6.59381
lowerneck -15.0539 1.02622 0.284881
upperneck 39.4511 4.8138 -7.94786
head 17.2193 0.936925 -2.75525
rclavicle -1.41137e-014 -6.75868e-015
rhumerus -19.0106 10.9002 -81.4299
rradius 40.3413
rwrist -14.2205
rhand -32.6164 21.2582
rfingers 7.12502
rthumb -5.84383 -8.6412
lclavicle -1.41137e-014 -6.75868e-015
lhumerus -31.1153 -15.3656 92.5356
lradius 47.1117
lwrist 11.4856
lhand -14.9341 33.137
lfingers 7.12502
lthumb 11.2283 62.8165
rfemur -38.1018 -9.34263 20.0121
rtibia 32.6338
rfoot -3.75471 -6.88792
rtoes -0.933563
lfemur -9.14593 2.5827 -18.1653
ltibia 23.4401
lfoot -18.8518 2.07401
ltoes -17.948
146
root 1.31382 17.7789 -6.80672 12.1705 -1.05861 -0.466915
lowerback 3.85144 1.37143 -6.54524
upperback 4.53296 1.65631 2.87144
thorax 2.28139 0.597293 6.64667
lowerneck -15.2201 0.895194 0.172811
upperneck 39.3865 4.64984 -7.93014
head 17.2109 0.856929 -2.75305
rclavicle -6.16232e-015 -1.59028e-015
rhumerus -18.5354 11.1207 -81.1617
rradius 40.5602
rwrist -14.1469
rhand -32.6522 21.1028
rfingers 7.12502
rthumb -5.87844 -8.79566
lclavicle -6.16232e-015 -1.59028e-015
lhumerus -31.2478 -16.2117 92.9146
lradius 48.3831
lwrist 11.9761
lhand -15.0079 33.0212
lfingers 7.12502
lthumb 11.1571 62.7046
rfemur -38.3805 -9.6178 20.2676
rtibia 33.1522
rfoot -3.78257 -6.96093
rtoes 0.794248
lfemur -9.72484 2.39607 -17.8404
ltibia 24.535
lfoot -18.9241 2.05647
ltoes -19.2851
147
root 1.26889 17.764 -6.75869 12.3754 -0.710476 -0.567373
lowerback 4.42313 1.45154 -6.0106
upperback 4.375 1.74139 2.72566
thorax 1.79515 0.679963 6.16569
lowerneck -15.2504 0.816445 0.293501
upperneck 39.6218 4.41167 -7.67564
head 17.321 0.811191 -2.71382
rclavicle 3.22031e-014 2.3059e-014
rhumerus -18.7129 11.1081 -81.4085
rradius 40.8731
rwrist -13.9826
rhand -32.5893 21.0037
rfingers 7.12502
rthumb -5.81775 -8.89645
lclavicle 3.22031e-014 2.3059e-014
lhumerus -32.007 -17.2228 92.9996
lradius 49.7573
lwrist 12.4445
lhand -14.812 33.1899
lfingers 7.12502
lthumb 11.3461 62.8629
rfemur -38.6992 -9.82131 20.568
rtibia 33.631
rfoot -3.83847 -7.06778
rtoes 2.37877
lfemur -10.5149 2.17192 -17.4857
ltibia 25.8725
lfoot -18.9747 1.87168
ltoes -19.0253
148
root 1.22387 17.7561 -6.71459 12.5599 -0.466652 -0.805072
lowerback 4.48638 1.45774 -5.80908
upperback 4.9639 1.75285 3.0656
thorax 2.36962 0.647652 6.41981
lowerneck -16.4663 0.774205 -0.271187
upperneck 39.5305 4.5906 -7.69025
head 17.5961 0.773755 -2.58708
rclavicle 3.97569e-016 5.96354e-015
rhumerus -17.234 11.8928 -80.774
rradius 40.9527
rwrist -14.1069
rhand -32.3931 21.0019
rfingers 7.12502
rthumb -5.62826 -8.90336
lclavicle 3.97569e-016 5.96354e-015
lhumerus -31.3754 -17.3535 93.2663
lradius 51.0762
lwrist 12.7584
lhand -14.6714 33.1059
lfingers 7.12502
lthumb 11.4817 62.7715
rfemur -39.0273 -9.88798 21.0302
rtibia 34.059
rfoot -3.71945 -7.07471
rtoes 2.75297
lfemur -11.4302 2.06717 -16.9836
ltibia 27.4689
lfoot -19.1561 1.46271
ltoes -17.4566
